{
  "accessors": [
    {
      "bufferView": 2,
      "componentType": 5126,
      "count": 41300,
      "max": [
        0.2893970012664795,
        0.44820499420166016,
        0.25638699531555176
      ],
      "min": [
        -0.36983099579811096,
        -0.45474401116371155,
        -0.2652469873428345
      ],
      "type": "VEC3"
    },
    {
      "bufferView": 2,
      "byteOffset": 495600,
      "componentType": 5126,
      "count": 41300,
      "max": [
        0.9999096393585205,
        0.999944806098938,
        0.9997592568397522
      ],
      "min": [
        -0.9996858835220337,
        -0.9998899698257446,
        -0.9999853372573853
      ],
      "type": "VEC3"
    },
    {
      "bufferView": 3,
      "componentType": 5126,
      "count": 41300,
      "max": [
        0.9994799494743347,
        0.9998743534088135,
        0.9982457160949707,
        1.0
      ],
      "min": [
        -0.9994210600852966,
        -0.9998573064804077,
        -0.9999736547470093,
        -1.0
      ],
      "type": "VEC4"
    },
    {
      "bufferView": 1,
      "componentType": 5126,
      "count": 41300,
      "max": [
        0.9924813508987427,
        1.0
      ],
      "min": [
        0.0,
        0.0
      ],
      "type": "VEC2"
    },
    {
      "bufferView": 1,
      "byteOffset": 330400,
      "componentType": 5126,
      "count": 41300,
      "max": [
        0.9924813508987427,
        1.0
      ],
      "min": [
        0.0,
        0.0
      ],
      "type": "VEC2"
    },
    {
      "bufferView": 1,
      "byteOffset": 660800,
      "componentType": 5126,
      "count": 41300,
      "max": [
        0.9924813508987427,
        1.0
      ],
      "min": [
        0.0,
        0.0
      ],
      "type": "VEC2"
    },
    {
      "bufferView": 1,
      "byteOffset": 991200,
      "componentType": 5126,
      "count": 41300,
      "max": [
        0.9924813508987427,
        1.0
      ],
      "min": [
        0.0,
        0.0
      ],
      "type": "VEC2"
    },
    {
      "bufferView": 0,
      "componentType": 5125,
      "count": 204222,
      "type": "SCALAR"
    }
  ],
  "asset": {
    "extras": {
      "author": "Freepoly.org (https://sketchfab.com/blackrray)",
      "license": "CC-BY-4.0 (http://creativecommons.org/licenses/by/4.0/)",
      "source": "https://sketchfab.com/3d-models/scan-shoe-freepolyorg-b267ae0a9d204e278f40e93804e9bdd7",
      "title": "Scan shoe-Freepoly.org"
    },
    "generator": "Sketchfab-15.23.0",
    "version": "2.0"
  },
  "bufferViews": [
    {
      "buffer": 0,
      "byteLength": 816888,
      "name": "floatBufferViews",
      "target": 34963
    },
    {
      "buffer": 0,
      "byteLength": 1321600,
      "byteOffset": 816888,
      "byteStride": 8,
      "name": "floatBufferViews",
      "target": 34962
    },
    {
      "buffer": 0,
      "byteLength": 991200,
      "byteOffset": 2138488,
      "byteStride": 12,
      "name": "floatBufferViews",
      "target": 34962
    },
    {
      "buffer": 0,
      "byteLength": 660800,
      "byteOffset": 3129688,
      "byteStride": 16,
      "name": "floatBufferViews",
      "target": 34962
    }
  ],
  "buffers": [
    {
      "byteLength": 3790488,
      "uri": "scene.bin"
    }
  ],
  "images": [
    {
      "uri": "textures/Default_OBJ.013_baseColor.png"
    },
    {
      "uri": "textures/Default_OBJ.013_metallicRoughness.png"
    },
    {
      "uri": "textures/Default_OBJ.013_normal.png"
    }
  ],
  "materials": [
    {
      "doubleSided": true,
      "name": "Default_OBJ.013",
      "normalTexture": {
        "index": 2
      },
      "pbrMetallicRoughness": {
        "baseColorTexture": {
          "index": 0
        },
        "metallicFactor": 0.0,
        "metallicRoughnessTexture": {
          "index": 1
        }
      }
    }
  ],
  "meshes": [
    {
      "name": "Object_0",
      "primitives": [
        {
          "attributes": {
            "NORMAL": 1,
            "POSITION": 0,
            "TANGENT": 2,
            "TEXCOORD_0": 3,
            "TEXCOORD_1": 4,
            "TEXCOORD_2": 5,
            "TEXCOORD_3": 6
          },
          "indices": 7,
          "material": 0,
          "mode": 4
        }
      ]
    }
  ],
  "nodes": [
    {
      "children": [
        1
      ],
      "matrix": [
        0.28341013193130493,
        0.0,
        0.0,
        0.0,
        0.0,
        6.29296907764376e-17,
        -0.28341013193130493,
        0.0,
        0.0,
        0.28341013193130493,
        6.29296907764376e-17,
        0.0,
        0.0,
        0.0,
        0.0,
        1.0
      ],
      "name": "Sketchfab_model"
    },
    {
      "children": [
        2
      ],
      "name": "root"
    },
    {
      "children": [
        3
      ],
      "matrix": [
        1.0,
        0.0,
        0.0,
        0.0,
        0.0,
        2.220446049250313e-16,
        1.0,
        0.0,
        0.0,
        -1.0,
        2.220446049250313e-16,
        0.0,
        0.0,
        0.0,
        0.0,
        1.0
      ],
      "name": "GLTF_SceneRootNode"
    },
    {
      "children": [
        4
      ],
      "matrix": [
        0.4407236928109224,
        0.6991948549164613,
        0.562929108728135,
        0.0,
        -0.36718702892141675,
        -0.4318267597483658,
        0.823832103864064,
        0.0,
        0.8191070213268632,
        -0.5697825939984268,
        0.06641899720304156,
        0.0,
        -0.024904446676373482,
        0.1398480236530304,
        0.0,
        1.0
      ],
      "name": "Shoe_LowPoly_3"
    },
    {
      "mesh": 0,
      "name": "Object_4"
    }
  ],
  "samplers": [
    {
      "magFilter": 9729,
      "minFilter": 9987,
      "wrapS": 10497,
      "wrapT": 10497
    }
  ],
  "scene": 0,
  "scenes": [
    {
      "name": "Sketchfab_Scene",
      "nodes": [
        0
      ]
    }
  ],
  "textures": [
    {
      "sampler": 0,
      "source": 0
    },
    {
      "sampler": 0,
      "source": 1
    },
    {
      "sampler": 0,
      "source": 2
    }
  ]
}
